REM MD5 e22e5b6a32e9358cfa197c05ca11bad7
FILE "V-Tennis (USA).bin" BINARY
  TRACK 01 MODE2/2352
    INDEX 01 00:00:00
  TRACK 02 AUDIO
    INDEX 00 16:30:61
    INDEX 01 16:32:61
  TRACK 03 AUDIO
    INDEX 00 19:41:32
    INDEX 01 19:43:32
REM LEADOUT 22:59:19
